<?xml version="1.0" encoding="utf-8"?>
<!-- Generator: Adobe Illustrator 21.1.0, SVG Export Plug-In . SVG Version: 6.00 Build 0)  -->
<svg version="1.1" id="Layer_1" xmlns="http://www.w3.org/2000/svg" xmlns:xlink="http://www.w3.org/1999/xlink" x="0px" y="0px"
	 viewBox="0 0 511.4 30.7" style="enable-background:new 0 0 511.4 30.7;" xml:space="preserve">
<style type="text/css">
	.st0{fill:#FFFFFF;}
</style>
<g>
	<g>
		<g>
			<path class="st0" d="M2.5,31.1c-0.5,0-0.7-0.2-0.7-0.5c0-0.2,0-0.4,0.1-0.7L3,27c0.3-0.8,0.8-1.2,1.5-1.2h21.7l-14.1-9.7
				c-1.1-0.8-1.9-1.6-2.3-2.5c-0.4-0.9-0.6-1.8-0.6-2.7c0-1.3,0.3-2.5,0.8-3.8c0.6-1.3,1.3-2.4,2.3-3.4s2.2-1.8,3.5-2.4
				c1.3-0.6,2.8-0.9,4.4-0.9h28.1C48.8,0.4,49,0.6,49,1c0,0.2-0.1,0.4-0.2,0.6l-1.1,2.9c-0.2,0.6-0.7,1-1.4,1H25.2l14.1,9.7
				c1.2,0.8,2,1.6,2.4,2.6c0.4,0.9,0.6,1.8,0.6,2.7c0,1.3-0.3,2.5-0.8,3.8s-1.3,2.4-2.3,3.4s-2.2,1.8-3.5,2.4S32.9,31,31.3,31
				L2.5,31.1L2.5,31.1z"/>
			<path class="st0" d="M73.5,18.8l-4.1,11c-0.2,0.4-0.4,0.7-0.6,0.9c-0.3,0.2-0.6,0.3-0.9,0.3H54.8c-0.5,0-0.7-0.2-0.7-0.5
				c0-0.2,0-0.4,0.1-0.7L58.3,19L51.1,1.7C51,1.6,51,1.5,51,1.4s0-0.2,0-0.3c0-0.3,0.1-0.6,0.4-0.7c0.3-0.2,0.5-0.2,0.7-0.2h15
				c0.7,0,1.1,0.3,1.4,0.9l5.2,13.2L89.2,1.1c0.4-0.3,0.7-0.6,1-0.7c0.3-0.1,0.6-0.2,1-0.2h2.6c0.3,0,0.5,0.2,0.5,0.5
				s-0.2,0.5-0.5,0.8L73.5,18.8z"/>
			<path class="st0" d="M85.4,31.1c-0.5,0-0.7-0.2-0.7-0.5c0-0.2,0-0.4,0.1-0.7L95.5,1.5c0.3-0.8,0.8-1.2,1.4-1.2h30.6
				c1.3,0,2.5,0.2,3.5,0.7s1.9,1.2,2.6,2c0.7,0.9,1.2,1.9,1.6,3c0.4,1.2,0.5,2.5,0.5,3.8c0,1.8-0.3,3.6-0.8,5.4
				c-0.5,1.8-1.3,3.4-2.2,5s-2,3-3.3,4.3s-2.6,2.5-4.1,3.4s-3,1.7-4.6,2.2s-3.2,0.8-4.8,0.8H85.4V31.1z M118.6,12.6
				c0.8-2.2,1.2-3.8,1.2-4.8c0-0.9-0.3-1.5-0.8-1.8s-1.2-0.5-2.2-0.5h-7.7l-7.5,20.2h7.7c0.8,0,1.5-0.1,2.1-0.4
				c0.7-0.3,1.3-0.8,1.9-1.4c0.6-0.6,1.2-1.5,1.8-2.5s1.1-2.3,1.7-3.9L118.6,12.6z"/>
			<path class="st0" d="M174.2,31.1c-0.8,0-1.4-0.1-1.9-0.2s-1.1-0.4-1.8-0.7l-25.5-14l-5.1,13.7c-0.3,0.8-0.8,1.2-1.4,1.2h-4.9
				c-0.5,0-0.7-0.2-0.7-0.5c0-0.2,0.1-0.5,0.2-0.7l10.7-28.4c0.3-0.8,0.8-1.2,1.5-1.2h4.3c0.8,0,1.5,0,2,0.1s1.1,0.3,1.7,0.7
				l23.5,13.4l5-13.1c0.3-0.8,0.8-1.2,1.4-1.2h4.9c0.5,0,0.7,0.2,0.7,0.6c0,0.2-0.1,0.4-0.2,0.6L178,29.9c-0.3,0.8-0.8,1.2-1.5,1.2
				H174.2z"/>
			<path class="st0" d="M193.3,31.1c-1.3,0-2.4-0.2-3.4-0.7s-1.9-1.2-2.6-2c-0.7-0.9-1.2-1.9-1.6-3.1c-0.4-1.2-0.5-2.5-0.5-3.9
				c0-1.7,0.3-3.5,0.8-5.2s1.2-3.4,2.1-4.9c0.9-1.6,2-3,3.2-4.3s2.6-2.5,4-3.5c1.5-1,3-1.7,4.6-2.3s3.3-0.8,5-0.8h26.6
				c0.5,0,0.7,0.2,0.7,0.6c0,0.2,0,0.4-0.1,0.6L231,4.5c-0.3,0.8-0.8,1.2-1.5,1.2h-17.7c-0.8,0-1.6,0.1-2.2,0.3
				c-0.6,0.2-1.3,0.6-1.8,1.1c-0.6,0.5-1.1,1.3-1.6,2.2s-1,2.1-1.5,3.4l-1.8,4.9c-0.5,1.3-0.8,2.4-1.1,3.3c-0.2,0.9-0.4,1.7-0.4,2.4
				c0,0.9,0.2,1.6,0.7,2s1.2,0.6,2.1,0.6H222c0.5,0,0.7,0.2,0.7,0.6c0,0.2-0.1,0.4-0.2,0.6l-1.1,2.9c-0.3,0.8-0.8,1.2-1.5,1.2h-26.6
				V31.1z M206.7,16.9c-0.5,0-0.7-0.2-0.7-0.5c0-0.2,0-0.4,0.2-0.6l1.1-2.9c0.3-0.8,0.8-1.2,1.5-1.2H227c0.5,0,0.8,0.2,0.8,0.5
				l-0.1,0.4l-1.4,3.7c-0.2,0.5-0.7,0.8-1.3,0.8h-18.3V16.9z"/>
			<path class="st0" d="M256.3,18.8l-4.1,11c-0.2,0.4-0.4,0.7-0.6,0.9c-0.3,0.2-0.6,0.3-0.9,0.3h-13.1c-0.5,0-0.7-0.2-0.7-0.5
				c0-0.2,0-0.4,0.1-0.7l4.1-10.8l-7.2-17.3c-0.1-0.1-0.1-0.2-0.1-0.3s0-0.2,0-0.3c0-0.3,0.1-0.6,0.4-0.7c0.3-0.2,0.5-0.2,0.7-0.2
				h15c0.7,0,1.1,0.3,1.4,0.9l5.2,13.2L272,1.1c0.4-0.3,0.7-0.6,1-0.7c0.3-0.1,0.6-0.2,1-0.2h2.6c0.3,0,0.5,0.2,0.5,0.5
				s-0.2,0.5-0.5,0.8L256.3,18.8z"/>
			<path class="st0" d="M292.1,31.1c-0.4,0-0.6-0.1-0.6-0.3l0.1-0.3l9.3-24.9h-11.1c-0.4,0-0.5-0.1-0.5-0.3V5.1l1.6-4.2
				c0.2-0.4,0.5-0.6,1-0.6h37.4c0.4,0,0.5,0.1,0.5,0.3c0,0.1,0,0.1,0,0.1v0.1L328.2,5c-0.2,0.3-0.5,0.5-0.9,0.5H316l-9.4,25
				c-0.2,0.4-0.5,0.6-0.9,0.6H292.1z"/>
			<path class="st0" d="M330.6,31.1c-1.3,0-2.5-0.2-3.5-0.7s-1.9-1.2-2.6-2.1s-1.2-1.9-1.6-3.1s-0.5-2.5-0.5-3.9
				c0-1.8,0.3-3.5,0.8-5.2s1.2-3.4,2.1-4.9c0.9-1.6,2-3,3.2-4.3s2.6-2.5,4-3.4c1.5-1,3-1.7,4.6-2.3s3.3-0.8,5-0.8h18.7
				c1.3,0,2.5,0.2,3.6,0.7c1,0.5,1.9,1.2,2.6,2c0.7,0.9,1.2,1.9,1.6,3c0.4,1.2,0.5,2.5,0.5,3.8c0,1.8-0.3,3.5-0.8,5.3
				c-0.5,1.7-1.2,3.4-2.2,4.9c-0.9,1.6-2,3-3.2,4.4c-1.2,1.3-2.6,2.5-4.1,3.5s-3,1.7-4.6,2.3c-1.6,0.6-3.3,0.8-4.9,0.8L330.6,31.1
				L330.6,31.1z M353.5,12.6c0.4-1.1,0.7-2,1-2.8c0.2-0.8,0.3-1.4,0.3-2c0-0.9-0.3-1.5-0.8-1.8s-1.3-0.5-2.3-0.5h-5.2
				c-0.7,0-1.4,0.1-2,0.3s-1.2,0.6-1.7,1.2c-0.5,0.5-1,1.3-1.5,2.2s-1,2-1.5,3.4l-1.8,4.9c-1,2.6-1.4,4.6-1.4,5.8
				c0,0.9,0.2,1.5,0.6,1.9s1.1,0.6,1.9,0.6h5.2c0.8,0,1.5-0.1,2.2-0.4s1.3-0.7,1.9-1.4c0.6-0.6,1.2-1.5,1.8-2.5
				c0.6-1.1,1.1-2.4,1.7-3.9L353.5,12.6z"/>
			<path class="st0" d="M377,31.1c-1.3,0-2.5-0.2-3.5-0.7s-1.9-1.2-2.6-2.1s-1.2-1.9-1.6-3.1s-0.5-2.5-0.5-3.9
				c0-1.8,0.3-3.5,0.8-5.2s1.2-3.4,2.1-4.9c0.9-1.6,2-3,3.2-4.3s2.6-2.5,4-3.4c1.5-1,3-1.7,4.6-2.3s3.3-0.8,5-0.8h18.7
				c1.3,0,2.5,0.2,3.6,0.7c1,0.5,1.9,1.2,2.6,2c0.7,0.9,1.2,1.9,1.6,3c0.4,1.2,0.5,2.5,0.5,3.8c0,1.8-0.3,3.5-0.8,5.3
				c-0.5,1.7-1.2,3.4-2.2,4.9c-0.9,1.6-2,3-3.2,4.4c-1.2,1.3-2.6,2.5-4.1,3.5s-3,1.7-4.6,2.3c-1.6,0.6-3.3,0.8-4.9,0.8L377,31.1
				L377,31.1z M400,12.6c0.4-1.1,0.7-2,1-2.8c0.2-0.8,0.3-1.4,0.3-2c0-0.9-0.3-1.5-0.8-1.8s-1.3-0.5-2.3-0.5H393
				c-0.7,0-1.4,0.1-2,0.3s-1.2,0.6-1.7,1.2c-0.5,0.5-1,1.3-1.5,2.2s-1,2-1.5,3.4l-1.8,4.9c-1,2.6-1.4,4.6-1.4,5.8
				c0,0.9,0.2,1.5,0.6,1.9s1.1,0.6,1.9,0.6h5.2c0.8,0,1.5-0.1,2.2-0.4s1.3-0.7,1.9-1.4c0.6-0.6,1.2-1.5,1.8-2.5
				c0.6-1.1,1.1-2.4,1.7-3.9L400,12.6z"/>
			<path class="st0" d="M422.5,31.1c-2.7,0-4.6-0.6-5.9-1.8c-1.2-1.2-1.8-2.8-1.8-4.9c0-1.8,0.4-3.8,1.3-6.1l6.4-16.9
				c0.3-0.8,0.8-1.2,1.4-1.2h14.6c0.5,0,0.7,0.2,0.7,0.6c0,0.2-0.1,0.4-0.2,0.6l-6.6,17.7c-0.7,1.8-1,3.2-1,4.2c0,1.6,1,2.4,3,2.4
				h15c0.5,0,0.7,0.2,0.7,0.6c0,0.2-0.1,0.4-0.2,0.6l-1.1,2.9c-0.3,0.8-0.8,1.2-1.4,1.2h-24.9V31.1z"/>
			<path class="st0" d="M451,31.1c-0.5,0-0.7-0.2-0.7-0.5c0-0.2,0-0.4,0.1-0.7l1.1-2.9c0.3-0.8,0.8-1.2,1.5-1.2h21.7l-14.1-9.7
				c-1.1-0.8-1.9-1.6-2.3-2.5s-0.6-1.8-0.6-2.7c0-1.3,0.3-2.5,0.8-3.8c0.6-1.3,1.3-2.4,2.3-3.4s2.2-1.8,3.5-2.4
				c1.3-0.6,2.8-0.9,4.4-0.9h28.1c0.5,0,0.7,0.2,0.7,0.6c0,0.2-0.1,0.4-0.2,0.6l-1.1,2.9c-0.3,0.8-0.8,1.2-1.5,1.2h-21.1l14.1,9.7
				c1.2,0.8,2,1.6,2.4,2.6c0.4,0.9,0.6,1.8,0.6,2.7c0,1.3-0.3,2.5-0.8,3.8s-1.3,2.4-2.3,3.4s-2.2,1.8-3.5,2.4s-2.8,0.9-4.4,0.9H451
				V31.1z"/>
		</g>
	</g>
	<g>
		<path class="st0" d="M511.4,4.6c0,2.6-2.1,4.7-4.7,4.7c-2.6,0-4.8-2.1-4.8-4.7c0-2.6,2.1-4.6,4.8-4.6S511.4,2.1,511.4,4.6z
			 M503.1,4.6c0,2.1,1.5,3.7,3.6,3.7c2,0,3.5-1.6,3.5-3.7c0-2.1-1.5-3.7-3.5-3.7C504.6,0.9,503.1,2.6,503.1,4.6z M506,7.1h-1.1V2.5
			c0.4-0.1,1-0.1,1.8-0.1c0.9,0,1.3,0.1,1.6,0.3s0.5,0.6,0.5,1c0,0.5-0.4,0.9-1,1.1v0.1c0.5,0.2,0.7,0.5,0.8,1.1
			c0.1,0.7,0.2,1,0.3,1.2h-1.2c-0.1-0.2-0.2-0.6-0.4-1.1c-0.1-0.5-0.4-0.7-1-0.7H506V7.1z M506,4.4h0.5c0.6,0,1.1-0.2,1.1-0.7
			c0-0.4-0.3-0.7-1-0.7c-0.3,0-0.5,0-0.6,0.1V4.4z"/>
	</g>
</g>
</svg>
